<?xml version="1.0" standalone="no"?>
<!DOCTYPE svg PUBLIC "-//W3C//DTD SVG 20010904//EN"
 "http://www.w3.org/TR/2001/REC-SVG-20010904/DTD/svg10.dtd">
<svg version="1.0" xmlns="http://www.w3.org/2000/svg"
 width="512.000000pt" height="512.000000pt" viewBox="0 0 512.000000 512.000000"
 preserveAspectRatio="xMidYMid meet">
<metadata>
Created by potrace 1.14, written by Peter Selinger 2001-2017
</metadata>
<g transform="translate(0.000000,512.000000) scale(0.100000,-0.100000)"
fill="#000000" stroke="none">
<path d="M3628 3764 c-4 -3 -14 -7 -25 -9 -10 -2 -18 -4 -18 -5 0 -2 -38 -11
-52 -12 -7 -1 -13 -5 -13 -10 0 -5 -5 -6 -10 -3 -6 4 -22 0 -35 -9 -13 -9 -29
-16 -35 -16 -6 0 -23 -8 -38 -19 -39 -27 -86 -55 -92 -55 -3 0 -13 -8 -24 -17
-10 -10 -33 -25 -50 -33 -17 -8 -41 -24 -52 -35 -12 -11 -24 -17 -28 -14 -3 3
-8 -2 -12 -11 -3 -9 -12 -16 -19 -16 -7 0 -15 -4 -17 -8 -1 -5 -27 -25 -57
-46 -48 -32 -108 -82 -187 -153 -13 -12 -24 -27 -24 -33 0 -5 -3 -9 -8 -7 -9
3 -132 -123 -132 -135 0 -5 -4 -6 -10 -3 -5 3 -10 -1 -10 -9 0 -9 -7 -16 -15
-16 -8 0 -15 -5 -15 -11 0 -14 -82 -95 -93 -91 -5 1 -6 -2 -3 -7 7 -10 -64
-87 -76 -84 -5 2 -7 -3 -5 -10 1 -6 -4 -11 -11 -9 -8 1 -11 -2 -7 -8 3 -6 -10
-26 -29 -45 -20 -19 -36 -38 -36 -41 0 -4 -18 -24 -40 -45 -22 -21 -40 -41
-40 -45 0 -4 -10 -15 -22 -25 -11 -11 -18 -19 -14 -19 4 0 -13 -20 -37 -45
-25 -25 -42 -45 -38 -45 3 0 1 -4 -4 -8 -6 -4 -30 -32 -55 -62 -49 -60 -68
-83 -99 -119 -12 -13 -21 -28 -21 -33 0 -5 -4 -6 -10 -3 -5 3 -10 1 -10 -5 0
-6 -12 -22 -26 -35 -15 -14 -24 -25 -19 -25 4 0 -7 -13 -25 -30 -18 -16 -29
-30 -25 -30 5 0 -3 -10 -17 -23 -14 -13 -33 -35 -43 -50 -9 -15 -22 -24 -29
-20 -6 3 -8 3 -4 -2 4 -4 2 -13 -5 -20 -7 -6 -27 -30 -46 -53 -18 -23 -38 -39
-44 -35 -5 3 -7 1 -4 -4 4 -6 -3 -21 -14 -34 -62 -73 -117 -136 -140 -159 -14
-15 -29 -35 -32 -44 -4 -10 -11 -14 -17 -11 -5 3 -10 1 -10 -4 0 -14 -117
-131 -123 -124 -9 8 3 57 16 65 7 4 8 8 2 8 -5 0 -3 5 5 10 10 7 11 10 2 10
-9 0 -9 6 3 23 8 13 12 27 8 30 -3 4 -2 7 3 7 5 0 10 10 11 22 1 11 6 24 11
27 4 3 16 32 26 64 11 34 22 54 28 50 6 -3 8 -1 5 5 -11 17 3 41 21 35 15 -4
15 -3 2 6 -13 10 -13 12 0 21 11 7 11 10 2 10 -7 0 -10 5 -7 10 4 6 11 8 16 5
5 -3 6 1 3 10 -4 9 1 22 12 31 11 9 14 13 7 10 -6 -4 -1 14 12 39 14 25 21 45
17 45 -3 0 3 7 15 15 13 9 19 22 16 34 -3 10 3 32 14 47 10 15 17 29 16 31 -2
2 0 2 5 1 4 -2 6 -7 4 -11 -1 -5 2 -6 8 -2 8 5 8 11 0 20 -8 10 -6 22 9 49 12
20 21 38 21 41 0 3 0 10 0 16 0 5 4 7 10 4 6 -3 7 1 4 10 -4 9 1 22 12 31 11
9 13 13 7 9 -9 -4 -11 -1 -7 9 3 9 10 13 15 10 5 -3 6 1 3 9 -3 8 -1 18 5 21
6 4 7 14 4 23 -5 12 -2 15 9 11 9 -4 15 0 15 8 0 8 -4 14 -8 14 -5 0 -6 7 -3
15 4 8 10 15 16 15 5 0 6 -6 2 -12 -4 -7 -3 -9 1 -5 14 12 15 38 2 30 -6 -4
-1 10 11 31 12 20 16 34 10 30 -10 -6 -11 -4 0 7 6 7 12 20 12 28 0 8 8 23 17
34 10 11 12 17 6 13 -9 -5 -11 -2 -7 8 3 9 10 16 14 16 5 0 6 10 2 22 -4 17
-2 20 13 14 15 -5 16 -4 5 9 -10 12 -10 15 1 15 11 0 11 2 -1 10 -9 6 -11 10
-3 10 7 0 10 7 7 15 -4 10 0 15 12 16 11 0 14 3 7 6 -9 3 -10 10 -3 24 6 10 8
19 4 19 -3 0 -1 6 5 13 6 8 8 17 4 20 -3 4 -2 12 3 19 5 7 9 22 9 33 0 11 6
26 15 33 8 8 10 11 4 8 -18 -9 -10 64 7 75 8 5 9 9 3 9 -14 0 -13 90 1 90 6 0
6 3 0 8 -6 4 -11 18 -11 32 -1 31 -12 80 -25 102 -5 10 -9 25 -9 33 0 8 -4 15
-10 15 -5 0 -10 6 -10 14 0 19 -107 126 -126 126 -8 0 -14 4 -14 8 0 9 -94 50
-96 42 0 -3 -8 1 -17 8 -25 21 -164 39 -272 35 -95 -3 -160 -9 -160 -13 0 -1
-11 -3 -25 -4 -14 -1 -45 -8 -70 -15 -25 -7 -49 -14 -55 -15 -18 -4 -59 -17
-80 -26 -47 -19 -81 -30 -102 -32 -7 -1 -11 -6 -10 -12 1 -6 -8 -10 -20 -10
-13 1 -23 -2 -23 -6 0 -5 -13 -13 -30 -19 -16 -5 -30 -15 -30 -20 0 -6 -7 -8
-15 -5 -8 4 -15 1 -15 -5 0 -6 -8 -11 -18 -11 -10 0 -25 -9 -35 -20 -10 -12
-21 -18 -26 -15 -5 2 -11 -2 -15 -10 -3 -8 -11 -15 -17 -15 -6 0 -19 -8 -28
-18 -9 -11 -21 -21 -28 -23 -13 -4 -129 -104 -153 -132 -8 -9 -30 -33 -48 -52
-19 -19 -30 -35 -26 -35 4 0 -3 -8 -14 -19 -12 -10 -22 -23 -22 -29 0 -5 -7
-13 -16 -16 -8 -3 -13 -10 -10 -14 3 -5 -4 -18 -14 -30 -11 -12 -20 -24 -20
-27 0 -3 -11 -23 -24 -44 -14 -21 -22 -42 -18 -46 4 -5 -2 -5 -12 -1 -16 5
-17 4 -6 -9 9 -11 9 -15 1 -15 -7 0 -10 -4 -6 -9 3 -5 1 -12 -5 -16 -6 -4 -8
-10 -5 -15 3 -5 0 -12 -7 -17 -7 -4 -13 -12 -14 -18 -1 -28 -17 -85 -24 -85
-4 0 -7 -8 -7 -17 0 -49 -4 -74 -11 -70 -4 3 -7 -25 -7 -61 1 -37 -3 -72 -8
-79 -4 -6 -4 -14 1 -17 5 -3 8 -21 7 -41 -1 -19 3 -35 8 -35 5 0 3 -8 -4 -17
-8 -10 -9 -14 -2 -10 7 5 12 1 11 -10 0 -23 9 -60 19 -76 4 -6 8 -16 9 -22 3
-25 17 -55 26 -55 5 0 7 -4 4 -9 -3 -5 1 -14 9 -21 8 -7 15 -19 15 -28 0 -8 3
-12 7 -9 3 4 13 -2 20 -13 11 -16 12 -24 3 -35 -8 -9 -8 -15 0 -20 6 -4 10 -3
9 2 -4 21 3 23 31 6 17 -10 28 -23 26 -30 -3 -7 1 -10 10 -6 7 3 14 0 14 -6 0
-6 3 -10 8 -10 21 4 32 -3 32 -18 0 -15 2 -16 10 -3 7 12 10 12 10 1 0 -7 6
-11 14 -8 8 3 16 2 18 -3 2 -5 13 -11 25 -13 11 -1 29 -9 39 -17 11 -9 15 -10
10 -2 -4 6 -2 12 3 12 6 0 11 -4 11 -9 0 -4 15 -8 33 -8 17 0 44 -2 59 -6 16
-3 28 -1 31 6 3 9 7 9 18 0 9 -7 20 -8 29 -3 8 5 17 7 21 4 4 -2 10 0 14 5 3
6 12 8 20 4 9 -3 15 1 15 8 1 9 6 7 15 -5 14 -18 15 -19 15 -2 0 13 5 17 20
13 10 -3 19 -2 18 2 -2 20 4 22 17 5 13 -18 14 -18 8 4 -4 18 -2 21 11 16 9
-4 16 -1 16 6 0 7 7 10 15 6 8 -3 14 0 12 7 -1 7 5 11 14 11 9 -1 16 6 15 15
0 9 4 15 11 14 6 -2 21 9 32 24 19 23 26 23 22 0 -1 -5 3 -5 9 -2 6 4 9 10 6
13 -8 7 23 54 67 103 9 10 17 21 16 24 -2 11 25 70 35 77 7 5 6 8 -3 8 -11 0
-10 4 5 16 10 8 13 13 6 9 -9 -5 -12 6 -11 42 2 70 -4 85 -40 105 -18 10 -30
14 -27 9 3 -5 -1 -11 -9 -15 -13 -4 -13 -10 0 -41 9 -19 11 -35 6 -35 -12 0
-9 -33 4 -42 6 -5 6 -8 -2 -8 -6 0 -10 -9 -8 -20 2 -11 0 -20 -5 -20 -5 0 -7
-6 -4 -14 3 -8 -2 -26 -11 -40 -10 -14 -15 -26 -11 -26 17 0 -94 -115 -139
-145 -33 -22 -86 -44 -125 -52 -38 -7 -180 -10 -180 -3 0 3 -11 7 -25 8 -65 5
-235 133 -235 177 0 8 -4 15 -10 15 -5 0 -10 9 -10 19 0 11 -4 22 -9 25 -8 5
-21 55 -26 99 -2 9 -3 18 -5 20 -8 9 -4 127 5 127 5 0 3 5 -5 10 -9 6 -11 10
-3 10 7 0 10 7 6 16 -3 9 0 20 8 25 11 7 11 9 1 9 -7 0 -10 5 -7 11 4 5 9 25
12 42 3 18 8 34 12 37 5 3 7 15 6 28 -1 12 3 22 8 22 6 0 7 3 4 7 -4 3 1 12
11 20 9 8 11 12 5 8 -9 -4 -11 -1 -7 9 3 9 10 13 15 10 5 -3 6 3 2 12 -4 11 1
22 12 30 10 8 13 14 7 14 -9 0 -9 4 0 19 7 11 15 18 18 16 4 -2 7 2 7 9 0 22
25 76 35 76 5 0 6 5 3 10 -3 6 -1 10 4 10 6 0 10 3 9 8 -3 11 22 54 48 81 13
13 21 27 18 32 -3 5 -1 9 4 9 5 0 25 20 44 45 19 24 38 42 42 38 3 -3 6 -1 6
6 0 9 8 11 23 8 20 -6 20 -5 4 7 -16 13 -16 14 0 27 15 12 16 12 8 -1 -5 -8
10 3 32 25 71 71 95 88 105 73 6 -9 8 -7 6 7 -2 12 2 19 9 18 7 -2 17 6 23 17
6 11 15 18 19 15 5 -2 14 2 21 10 16 20 30 19 47 -2 13 -16 13 -16 3 5 -14 29
-5 43 26 38 17 -3 24 0 24 10 0 8 5 12 10 9 6 -3 10 -1 10 6 0 6 8 9 20 6 11
-3 18 -2 15 3 -3 4 2 11 11 14 10 4 13 2 9 -7 -4 -6 0 -4 8 6 14 17 63 34 53
19 -2 -4 4 -8 14 -8 14 0 16 4 9 13 -8 9 -6 12 8 13 45 1 63 5 63 13 0 4 4 6
9 2 6 -3 8 -14 6 -25 -2 -12 0 -18 5 -15 5 3 7 15 5 26 -3 15 0 19 10 15 8 -3
17 -1 21 5 4 6 12 5 22 -3 9 -7 13 -8 9 -2 -5 8 7 12 38 11 25 0 45 -5 45 -11
0 -6 5 -4 10 4 8 12 13 13 30 2 16 -10 20 -10 20 0 0 9 3 8 10 -2 5 -8 10 -10
10 -3 0 6 9 9 20 6 19 -5 19 -6 -3 -25 -18 -17 -17 -16 11 2 17 12 32 17 32
11 0 -6 7 -7 17 -4 11 4 14 3 9 -6 -5 -8 -3 -11 5 -10 8 2 28 -1 46 -5 24 -6
30 -11 26 -24 -6 -14 -4 -15 9 -5 12 11 18 9 32 -6 11 -12 15 -25 11 -33 -6
-10 -5 -10 5 -1 10 9 18 6 37 -11 22 -20 23 -27 13 -46 -6 -12 -9 -24 -7 -27
3 -2 8 5 12 16 3 12 9 21 13 21 8 0 32 -49 32 -66 0 -7 4 -14 9 -16 6 -1 11
-14 13 -28 2 -14 7 -31 12 -39 7 -11 6 -12 -5 -6 -12 7 -12 6 -1 -8 18 -22 20
-207 2 -207 -3 0 -7 -14 -8 -31 -1 -17 -7 -40 -13 -50 -5 -11 -7 -19 -3 -19 3
0 1 -7 -6 -15 -7 -8 -10 -15 -6 -15 4 0 0 -13 -9 -30 -8 -16 -16 -33 -16 -37
0 -21 -12 -53 -19 -53 -4 0 -7 -6 -6 -12 2 -27 -47 -167 -57 -161 -6 3 -7 1
-3 -5 7 -12 -43 -174 -57 -183 -5 -4 -6 -12 -3 -18 4 -6 2 -11 -4 -11 -6 0 -8
-4 -5 -10 3 -5 1 -10 -5 -10 -6 0 -8 -5 -5 -10 3 -6 -1 -17 -10 -26 -9 -9 -14
-23 -11 -30 3 -8 1 -14 -4 -14 -4 0 -11 -13 -15 -30 -4 -17 -11 -30 -16 -30
-6 0 -8 -4 -5 -8 2 -4 -6 -28 -19 -54 -13 -25 -21 -49 -18 -52 4 -3 1 -6 -5
-6 -7 0 -11 -3 -11 -7 1 -5 -4 -24 -12 -43 -7 -19 -12 -39 -11 -44 2 -5 -4 -6
-12 -3 -10 4 -13 1 -9 -9 3 -8 0 -21 -7 -29 -7 -8 -9 -15 -5 -15 4 0 2 -6 -4
-13 -6 -8 -8 -17 -4 -20 3 -4 1 -7 -5 -7 -7 0 -12 -9 -12 -20 0 -11 -5 -20
-11 -20 -5 0 -8 -3 -5 -8 2 -4 -4 -25 -14 -47 -10 -22 -17 -43 -14 -46 2 -4
-3 -12 -11 -19 -8 -7 -12 -16 -9 -21 3 -5 1 -9 -5 -9 -5 0 -8 -9 -6 -20 2 -11
-1 -20 -6 -20 -6 0 -8 -4 -4 -9 3 -5 1 -12 -5 -16 -5 -3 -10 -12 -10 -20 0 -8
-5 -26 -12 -42 -6 -15 -12 -31 -13 -35 -2 -5 -4 -11 -5 -15 -1 -5 -2 -11 -1
-15 0 -5 -2 -8 -7 -8 -4 0 -8 -14 -8 -31 -1 -17 -8 -35 -15 -40 -10 -6 -10 -9
-2 -9 9 0 10 -7 4 -23 -13 -33 1 -49 44 -52 22 -1 31 1 23 6 -12 8 -4 13 15
10 4 0 7 3 7 8 0 5 20 17 45 28 25 10 45 22 45 26 0 5 5 5 10 2 6 -3 10 -2 10
4 0 6 6 8 14 5 7 -3 16 2 20 12 5 13 9 14 22 3 8 -7 14 -8 13 -3 -4 21 2 35
11 29 6 -3 10 -1 10 4 0 6 7 11 15 11 8 0 19 9 25 20 6 11 18 20 26 20 8 0 12
5 9 10 -3 5 -1 10 5 10 6 0 15 11 22 25 6 13 15 22 19 19 5 -3 9 0 9 6 0 6 4
8 10 5 6 -3 7 1 4 9 -3 9 -2 16 2 17 25 2 47 8 52 15 4 4 -1 4 -10 1 -21 -7
-22 1 -5 24 7 9 18 14 25 12 7 -3 10 1 6 11 -6 16 3 20 36 17 11 -1 10 1 -3 9
-22 14 -13 30 16 31 12 0 16 3 9 6 -9 3 -5 12 13 29 14 13 22 24 18 24 -4 0 1
7 12 16 11 8 20 20 20 27 1 7 6 11 13 9 7 -1 12 4 12 11 0 6 17 31 39 54 21
23 36 45 33 48 -3 3 0 5 6 5 7 0 11 5 10 11 -2 6 3 14 11 17 8 2 11 0 8 -5 -3
-5 0 -10 8 -10 12 0 12 3 3 14 -9 11 -9 16 2 23 8 5 17 7 21 4 4 -2 11 1 15 7
4 7 3 9 -4 5 -6 -3 -13 -2 -17 4 -3 5 -2 10 3 10 5 0 15 11 22 25 15 27 36 35
26 9 -3 -9 -2 -12 5 -9 5 4 8 12 6 18 -6 17 12 49 24 42 5 -4 9 -3 8 2 -3 20
2 34 11 28 5 -3 12 6 16 20 7 27 13 30 32 15 9 -7 9 -7 2 2 -13 16 -13 31 0
23 6 -3 10 0 10 7 0 16 49 74 61 71 4 -2 5 5 2 14 -5 12 -2 15 10 10 12 -4 14
-2 10 10 -5 12 -3 14 7 8 8 -5 11 -3 8 6 -2 7 14 31 36 53 23 21 32 33 21 25
-19 -13 -19 -13 -6 4 8 10 20 16 26 13 7 -2 12 3 11 12 0 9 5 16 12 14 8 -1
11 2 8 6 -7 12 54 83 65 76 5 -3 6 1 3 9 -6 16 21 41 35 33 6 -4 8 2 6 14 -2
12 1 20 9 20 7 0 18 12 25 26 7 16 17 24 26 20 8 -3 17 0 21 6 4 7 3 8 -4 4
-23 -14 -12 7 25 48 20 22 46 46 57 53 12 7 17 12 12 13 -5 0 8 15 28 34 20
19 36 39 36 45 0 6 4 11 9 11 14 0 60 48 53 56 -4 4 1 4 10 1 11 -4 17 -2 15
6 -1 7 4 11 11 9 8 -1 11 2 7 8 -3 5 -1 10 5 10 6 0 9 4 5 9 -3 5 4 12 15 16
11 4 17 11 14 17 -5 7 -1 9 9 5 9 -3 16 -3 14 2 -1 4 13 22 31 40 28 29 35 31
50 20 14 -11 15 -11 5 1 -17 19 -16 30 3 30 8 0 12 5 9 10 -9 14 8 12 25 -2
12 -11 12 -10 2 4 -15 19 -2 31 25 22 14 -5 15 -4 4 4 -12 9 -12 13 2 26 8 9
18 16 22 16 4 0 13 7 21 15 8 8 20 13 27 11 7 -1 9 -1 5 1 -15 9 -8 25 8 19 8
-3 12 -2 9 4 -3 6 -1 10 5 10 6 0 9 4 6 8 -3 5 1 9 9 10 8 1 22 3 30 4 11 1
12 5 6 11 -7 7 -4 14 8 21 41 24 138 90 164 112 16 13 33 22 38 18 5 -3 9 1 9
8 0 11 2 10 9 0 6 -11 9 -10 13 5 3 11 15 19 28 20 13 1 26 6 29 10 12 17 60
35 76 29 9 -3 13 -2 10 3 -7 12 7 21 39 23 14 1 26 6 26 11 0 5 7 7 15 3 8 -3
15 -2 15 3 0 4 6 8 13 8 24 1 90 13 100 20 6 3 7 1 3 -5 -4 -7 -4 -12 1 -13 4
0 16 -2 25 -4 10 -2 20 1 24 6 3 5 10 7 15 3 5 -3 6 -10 3 -16 -4 -6 2 -5 15
1 17 10 22 9 27 -4 3 -8 10 -15 16 -15 5 0 7 4 3 9 -3 6 4 8 15 6 11 -2 18 0
15 6 -4 5 -2 9 2 9 5 0 7 18 5 39 -4 43 -25 68 -63 77 -43 11 -154 10 -168 0
-11 -8 -13 -8 -7 2 7 12 4 16 -6 6z"/>
<path d="M3570 3599 c0 -5 5 -7 10 -4 6 3 10 8 10 11 0 2 -4 4 -10 4 -5 0 -10
-5 -10 -11z"/>
<path d="M1251 3564 c0 -11 3 -14 6 -6 3 7 2 16 -1 19 -3 4 -6 -2 -5 -13z"/>
<path d="M4314 3561 c-2 -2 -23 -5 -46 -7 -80 -7 -113 -11 -130 -19 -10 -4
-25 -5 -33 -1 -8 3 -15 2 -15 -3 0 -4 -6 -8 -12 -9 -7 0 -26 -3 -43 -7 -16 -4
-38 -7 -47 -8 -10 -1 -18 -4 -18 -8 0 -3 -19 -9 -42 -13 -23 -4 -48 -12 -55
-18 -7 -6 -13 -8 -13 -4 0 4 -13 0 -30 -9 -16 -9 -30 -13 -30 -10 0 3 -10 -1
-23 -10 -13 -8 -27 -12 -30 -8 -4 3 -7 1 -7 -5 0 -7 -6 -12 -13 -12 -39 0
-235 -132 -321 -215 -37 -36 -64 -65 -61 -65 5 0 -17 -29 -43 -56 -7 -8 -10
-14 -5 -14 4 0 3 -4 -3 -8 -17 -12 -44 -95 -45 -142 -1 -25 -6 -51 -12 -58 -6
-7 -6 -12 -1 -11 21 4 26 -2 14 -16 -10 -12 -9 -16 3 -21 9 -3 13 -12 10 -21
-5 -12 -3 -14 7 -8 9 5 11 4 6 -4 -4 -6 -1 -18 6 -26 31 -34 36 -43 31 -49 -4
-3 -2 -6 3 -6 6 0 19 -7 30 -15 18 -15 18 -15 0 -8 -13 4 -17 3 -12 -5 4 -7
16 -12 27 -12 13 0 19 -6 17 -17 -2 -14 4 -18 25 -17 17 1 27 -4 27 -13 0 -8
6 -13 13 -12 24 4 69 -20 61 -33 -6 -10 -5 -10 7 -1 10 8 19 9 25 3 5 -5 18
-11 29 -13 50 -10 81 -22 93 -36 11 -15 12 -15 7 0 -4 10 0 16 10 16 8 0 15
-7 15 -16 0 -14 2 -14 10 -1 9 13 10 13 11 0 1 -8 1 -19 -1 -25 -1 -5 7 -2 18
8 10 9 21 14 25 11 6 -6 16 -8 65 -13 8 0 10 -6 6 -13 -6 -10 -4 -10 8 0 14
11 18 10 27 -5 6 -11 11 -13 11 -5 0 9 7 11 21 7 12 -4 27 -8 33 -10 6 -1 26
-6 43 -10 18 -4 31 -11 28 -15 -2 -3 2 -7 10 -7 8 0 12 4 9 9 -10 15 13 8 36
-12 27 -23 38 -26 21 -6 -10 12 -8 13 11 8 13 -3 28 -12 34 -20 8 -10 13 -12
18 -4 4 6 13 9 22 5 12 -4 12 -8 2 -22 -10 -13 -9 -13 8 2 22 18 36 14 28 -8
-3 -8 3 -12 18 -11 15 1 22 -4 20 -13 -3 -12 -1 -12 13 -1 13 11 20 11 40 0
13 -7 22 -18 18 -23 -3 -6 -1 -7 6 -3 14 9 43 -12 35 -25 -3 -5 2 -6 10 -3 9
3 16 1 16 -4 0 -6 6 -17 14 -24 7 -8 18 -36 24 -62 9 -42 8 -47 -7 -41 -12 5
-13 4 -4 -6 8 -8 9 -18 2 -30 -5 -10 -8 -22 -7 -26 2 -8 -40 -95 -51 -103 -3
-3 -15 -22 -26 -42 -10 -20 -21 -36 -24 -35 -3 1 -6 0 -6 -3 0 -8 -100 -107
-104 -104 -2 2 -11 -4 -20 -14 -25 -28 -138 -102 -145 -95 -3 4 -6 1 -6 -6 0
-7 -5 -9 -10 -6 -6 3 -13 0 -16 -8 -2 -7 -11 -14 -19 -15 -8 -1 -22 -3 -30 -4
-8 -1 -15 -5 -15 -9 0 -3 -9 -9 -20 -12 -28 -7 -28 -7 -87 -34 -29 -12 -53
-21 -53 -18 0 2 -16 -3 -35 -11 -19 -8 -35 -12 -35 -9 0 3 -8 1 -17 -4 -10 -5
-31 -11 -48 -14 -16 -3 -41 -8 -55 -12 -76 -18 -160 -26 -310 -28 -116 -3
-171 1 -260 18 -39 7 -83 42 -73 59 3 6 3 8 -2 4 -8 -8 -55 52 -55 71 0 5 -5
11 -11 13 -5 2 -11 10 -13 18 -2 8 -8 28 -14 43 -7 16 -12 33 -12 38 0 5 -6 9
-12 9 -10 0 -10 2 -1 8 8 5 9 13 3 22 -5 9 -5 19 2 28 9 10 8 12 -2 10 -9 -2
-15 11 -17 42 -2 25 -8 58 -13 73 -5 15 -5 25 0 22 5 -3 5 9 0 27 -11 40 -20
108 -23 166 -1 23 -5 42 -8 42 -4 0 -6 6 -6 13 1 24 -16 77 -24 77 -5 0 -9 7
-9 16 0 8 -4 12 -10 9 -5 -3 -10 -2 -10 3 0 23 -116 40 -136 19 -4 -4 -15 -7
-24 -7 -9 0 -25 -8 -36 -18 -10 -10 -27 -21 -37 -25 -10 -4 -16 -11 -12 -16 3
-6 -4 -15 -15 -21 -11 -6 -17 -16 -14 -22 5 -8 1 -9 -12 -4 -10 4 -15 4 -12 0
4 -4 2 -16 -4 -28 -7 -11 -11 -24 -10 -28 1 -5 -3 -8 -10 -8 -6 0 -9 -3 -5 -6
3 -3 -1 -23 -8 -45 -8 -21 -12 -39 -10 -39 2 0 0 -13 -5 -29 -5 -20 -5 -31 2
-33 7 -3 7 -12 -2 -27 -6 -13 -7 -21 -2 -17 6 4 10 -1 10 -11 -1 -27 9 -68 22
-92 6 -12 8 -27 4 -33 -4 -7 -3 -8 4 -4 11 6 13 2 12 -19 -1 -3 6 -13 15 -22
9 -8 14 -22 11 -29 -3 -8 -1 -14 5 -14 5 0 14 -11 21 -25 6 -13 15 -22 19 -19
5 3 9 -2 9 -10 0 -9 5 -16 11 -16 5 0 7 -5 4 -10 -3 -6 -1 -10 4 -10 6 0 11
-7 11 -17 0 -9 3 -14 6 -10 9 9 35 -19 32 -34 -2 -6 8 -13 20 -14 25 -2 44
-23 36 -37 -3 -4 -1 -8 5 -8 5 0 11 6 14 13 3 8 10 6 23 -7 19 -20 19 -20 -1
-5 -18 13 -19 12 -8 -2 7 -9 9 -20 5 -25 -4 -5 3 -1 15 9 16 14 23 15 29 6 5
-8 3 -10 -6 -4 -8 5 -11 4 -7 -3 4 -5 16 -8 26 -5 10 3 22 0 25 -6 4 -6 16
-11 27 -11 10 0 19 -6 19 -14 0 -8 4 -18 10 -21 5 -3 7 0 4 9 -8 21 43 11 65
-12 9 -10 12 -12 7 -5 -7 11 -2 13 25 8 72 -14 94 -25 143 -71 7 -6 22 -15 34
-18 12 -4 22 -11 22 -15 0 -5 14 -11 31 -15 19 -4 28 -10 23 -17 -4 -7 -1 -10
7 -7 8 3 26 -1 41 -9 15 -7 31 -14 35 -16 5 -1 7 -6 5 -12 -1 -5 3 -3 10 5 14
16 55 19 77 5 10 -5 12 -4 7 3 -4 7 -1 12 8 12 25 0 19 38 -6 46 -13 4 -26 12
-30 18 -5 7 -8 7 -8 -3 0 -11 -3 -11 -15 -1 -8 7 -15 10 -15 7 0 -3 -16 1 -35
9 -19 8 -35 12 -35 9 0 -3 -10 0 -22 7 -13 7 -26 11 -30 10 -5 -1 -8 2 -8 6 0
5 13 9 29 10 24 0 29 -3 24 -16 -4 -14 -3 -14 5 -3 12 17 85 25 75 7 -4 -6 1
-5 10 3 9 7 18 11 18 7 1 -3 2 -10 3 -15 0 -5 5 -13 9 -18 5 -4 8 -3 7 2 -4
20 0 35 11 35 5 0 7 -5 3 -12 -5 -7 -3 -8 5 -3 23 13 82 15 74 2 -5 -9 -3 -9
8 -2 26 19 76 5 63 -17 -4 -7 -2 -8 5 -4 9 6 9 11 1 21 -7 8 -7 15 -1 19 5 3
11 1 13 -6 3 -7 9 -8 18 -3 21 13 70 13 70 1 0 -6 5 -4 10 4 5 10 22 15 49 14
23 0 41 3 41 7 0 4 9 6 20 4 11 -2 22 1 25 6 4 5 10 7 15 4 5 -3 20 -1 35 5
24 9 26 8 21 -12 l-6 -23 11 23 c7 12 20 22 30 22 9 0 25 3 35 7 14 5 16 3 11
-11 -4 -10 -3 -15 3 -11 6 3 10 13 10 21 0 13 18 19 49 15 7 -2 10 2 7 7 -3 6
7 9 23 8 17 -1 28 1 25 5 -5 9 55 31 66 24 4 -3 10 2 14 10 3 8 11 15 17 15 7
0 8 -5 3 -13 -5 -7 -2 -5 7 5 9 9 19 14 23 11 10 -11 37 -12 30 -2 -3 5 -10 7
-15 4 -5 -4 -9 -2 -9 3 0 8 33 22 61 26 3 1 13 9 23 19 10 9 23 17 30 17 7 0
21 9 31 20 10 11 22 20 28 20 5 0 22 9 38 21 16 11 33 17 39 14 6 -3 7 1 4 9
-7 19 7 21 26 4 12 -11 13 -11 3 1 -9 11 -4 21 25 51 30 32 40 37 57 29 18 -9
19 -9 3 4 -22 17 -24 31 -4 24 11 -4 13 -1 9 10 -5 12 -2 15 9 10 11 -4 15 0
13 11 -4 25 16 47 27 30 5 -8 6 -1 2 16 -6 24 -4 28 9 23 12 -4 14 -2 10 10
-4 11 -2 14 5 9 7 -4 10 1 7 14 -2 11 0 20 6 20 5 0 8 3 8 8 -3 18 2 33 10 28
4 -3 7 6 5 19 -1 14 2 27 7 31 5 3 7 10 4 15 -4 5 -2 9 2 9 5 0 10 12 11 28 4
42 7 56 16 71 6 9 5 12 -1 8 -7 -5 -10 5 -8 28 2 19 -2 52 -8 72 -6 21 -10 41
-9 46 1 4 -3 7 -8 7 -6 0 -10 6 -10 14 0 8 -16 29 -36 48 -20 18 -45 41 -55
51 -11 9 -19 14 -19 11 0 -3 -13 4 -30 16 -16 12 -30 18 -30 15 0 -4 -11 0
-25 9 -14 9 -30 14 -35 11 -6 -3 -10 -1 -10 4 0 6 -8 11 -17 11 -10 0 -31 7
-46 15 -18 9 -25 10 -20 2 4 -7 0 -7 -10 2 -9 7 -17 11 -17 8 0 -3 -14 -2 -32
3 -17 5 -49 12 -72 16 -22 3 -49 10 -59 16 -15 8 -18 7 -12 -3 5 -8 4 -10 -3
-5 -16 10 -67 20 -157 33 -22 3 -42 8 -45 12 -5 6 -29 10 -80 12 -14 1 -30 6
-37 11 -7 5 -17 7 -23 3 -5 -3 -10 -1 -10 6 0 7 -3 9 -7 6 -3 -4 -12 -2 -20 4
-7 6 -13 8 -13 4 0 -4 -7 -2 -15 5 -8 6 -19 9 -25 5 -5 -3 -10 -1 -10 4 0 6
-7 11 -15 11 -8 0 -15 5 -15 12 0 6 -3 8 -6 5 -15 -15 -108 67 -126 110 -14
35 -18 113 -6 113 5 0 7 4 4 9 -7 11 32 91 45 91 6 0 7 5 3 12 -5 7 -2 9 8 5
12 -4 14 -1 11 14 -3 12 0 19 9 19 7 0 20 10 28 21 8 12 21 27 28 33 8 6 24
21 37 34 12 12 27 22 33 22 6 0 15 6 19 13 4 7 27 21 50 32 22 11 39 24 36 28
-3 5 4 4 15 -2 15 -8 23 -8 28 1 4 6 3 8 -4 4 -6 -3 -14 -1 -18 6 -4 7 -4 10
1 6 4 -4 24 2 43 14 20 12 32 16 28 10 -4 -7 -2 -12 3 -12 6 0 11 4 11 9 0 11
47 30 85 33 17 2 36 9 44 16 15 14 37 10 34 -6 -3 -11 22 -10 34 2 4 4 2 6 -6
4 -7 -1 -15 2 -18 9 -4 12 14 12 34 0 6 -4 15 -2 19 4 5 8 3 9 -7 4 -11 -6
-11 -5 -3 4 9 10 17 10 34 1 15 -8 20 -8 16 -1 -4 6 -4 11 1 12 4 0 17 2 28 4
21 4 103 8 119 6 5 0 2 -9 -5 -18 -13 -16 -12 -17 3 -4 10 7 16 17 13 21 -3 5
-1 11 5 15 5 3 10 2 10 -4 0 -5 9 -9 20 -8 11 1 20 4 20 7 0 3 18 6 39 6 22 0
38 -3 36 -7 -3 -3 15 -6 38 -6 105 0 119 -2 113 -19 -3 -9 -2 -12 5 -9 5 4 18
1 27 -6 13 -11 12 -8 -2 9 -11 12 -14 22 -8 22 6 0 13 -4 16 -9 4 -5 14 -8 24
-6 9 1 22 -2 29 -7 7 -5 18 -6 24 -2 8 5 9 3 4 -6 -6 -10 -4 -12 8 -7 8 3 21
-1 27 -9 7 -8 16 -14 21 -14 14 0 48 -33 43 -42 -3 -4 1 -5 9 -2 14 5 51 -43
74 -98 9 -20 9 -28 0 -32 -9 -3 -9 -5 1 -5 16 -1 17 -101 0 -101 -6 0 -8 -3
-5 -7 4 -3 1 -13 -6 -21 -10 -13 -9 -14 3 -7 8 5 4 -5 -10 -22 -14 -17 -26
-29 -28 -28 -2 2 -15 -8 -29 -21 -14 -13 -28 -23 -32 -22 -3 0 -8 -1 -11 -2
-7 -3 -53 -8 -120 -13 -30 -3 -63 -8 -72 -12 -19 -8 -25 -35 -8 -35 6 0 10 -6
10 -12 0 -14 123 -19 136 -5 4 4 14 1 22 -6 13 -9 14 -9 8 1 -7 12 10 17 43
13 7 -2 11 2 8 6 -5 8 11 13 55 16 9 1 16 6 15 12 -1 5 5 9 14 7 9 -1 19 4 23
13 3 8 11 15 18 15 7 0 22 11 32 25 19 25 43 35 30 13 -4 -7 -3 -9 1 -5 5 4
10 14 11 22 3 23 28 75 36 75 3 0 4 10 0 22 -3 11 -1 19 4 16 12 -8 5 115 -8
137 -3 6 -8 22 -12 38 -3 15 -11 27 -16 27 -6 0 -10 6 -10 13 0 21 -70 79
-138 115 -34 18 -62 30 -62 26 0 -3 -7 0 -17 7 -9 8 -18 13 -20 12 -1 -2 -4
-3 -5 -2 -9 2 -37 9 -63 14 -16 3 -46 9 -65 13 -19 4 -47 7 -62 7 -16 -1 -28
2 -28 5 0 6 -199 7 -206 1z m-64 -1181 c0 -5 -2 -10 -4 -10 -3 0 -8 5 -11 10
-3 6 -1 10 4 10 6 0 11 -4 11 -10z m-1672 -88 c7 -5 14 -23 15 -40 1 -18 6
-32 11 -32 5 0 3 -7 -4 -15 -7 -8 -8 -15 -2 -15 5 0 12 -9 15 -20 3 -12 1 -18
-5 -14 -6 4 -5 -3 1 -15 7 -12 9 -26 6 -31 -3 -5 -1 -11 5 -15 6 -4 8 -11 4
-16 -3 -5 0 -17 8 -26 9 -12 9 -15 1 -9 -7 4 -13 2 -13 -3 0 -6 6 -11 13 -12
9 0 9 -2 0 -6 -10 -3 -9 -9 3 -20 11 -12 12 -18 4 -23 -9 -6 -9 -9 -1 -11 7
-3 13 -21 14 -41 1 -20 6 -34 11 -31 5 3 7 0 4 -8 -3 -8 1 -20 9 -27 7 -8 11
-18 8 -23 -4 -5 -1 -9 6 -9 7 0 9 -3 6 -7 -4 -3 0 -17 8 -30 9 -13 13 -23 10
-23 -4 0 3 -14 15 -30 12 -17 19 -37 16 -45 -3 -8 0 -17 6 -21 7 -5 8 -2 3 7
-4 8 2 4 14 -8 11 -12 21 -29 21 -37 0 -7 7 -16 15 -20 8 -3 15 -11 15 -18 0
-9 -3 -9 -12 0 -7 7 -19 12 -28 12 -9 0 -27 10 -40 23 -14 12 -26 20 -28 17
-1 -3 -19 11 -40 30 -20 19 -30 26 -22 15 14 -19 14 -19 -2 -6 -10 7 -18 17
-18 21 0 5 -13 23 -29 40 -40 44 -61 70 -60 73 0 1 -9 23 -21 50 -12 26 -18
52 -14 59 4 6 3 8 -3 5 -10 -6 -20 28 -29 103 -2 19 -6 47 -9 63 -2 15 -1 27
4 27 5 0 7 14 5 31 -2 16 0 28 4 25 4 -2 8 10 9 27 2 21 13 41 33 60 33 29 38
31 58 19z"/>
<path d="M1415 3540 c3 -5 8 -10 11 -10 2 0 4 5 4 10 0 6 -5 10 -11 10 -5 0
-7 -4 -4 -10z"/>
<path d="M1500 3506 c0 -2 8 -10 18 -17 15 -13 16 -12 3 4 -13 16 -21 21 -21
13z"/>
<path d="M3310 3500 c0 -5 5 -10 11 -10 5 0 7 5 4 10 -3 6 -8 10 -11 10 -2 0
-4 -4 -4 -10z"/>
<path d="M3295 3460 c3 -5 8 -10 11 -10 2 0 4 5 4 10 0 6 -5 10 -11 10 -5 0
-7 -4 -4 -10z"/>
<path d="M1615 3451 c-3 -5 -2 -12 3 -15 5 -3 9 1 9 9 0 17 -3 19 -12 6z"/>
<path d="M4390 3450 c0 -5 5 -10 11 -10 5 0 7 5 4 10 -3 6 -8 10 -11 10 -2 0
-4 -4 -4 -10z"/>
<path d="M4355 3441 c-3 -5 -2 -12 3 -15 5 -3 9 1 9 9 0 17 -3 19 -12 6z"/>
<path d="M759 3393 c-13 -16 -12 -17 4 -4 9 7 17 15 17 17 0 8 -8 3 -21 -13z"/>
<path d="M4710 3400 c0 -5 5 -10 11 -10 5 0 7 5 4 10 -3 6 -8 10 -11 10 -2 0
-4 -4 -4 -10z"/>
<path d="M3910 3370 c-9 -6 -10 -10 -3 -10 6 0 15 5 18 10 8 12 4 12 -15 0z"/>
<path d="M715 3340 c3 -5 8 -10 11 -10 2 0 4 5 4 10 0 6 -5 10 -11 10 -5 0 -7
-4 -4 -10z"/>
<path d="M3879 3333 c-13 -17 -13 -17 6 -3 11 8 22 16 24 17 2 2 0 3 -6 3 -6
0 -17 -8 -24 -17z"/>
<path d="M3816 3313 c-6 -14 -5 -15 5 -6 7 7 10 15 7 18 -3 3 -9 -2 -12 -12z"/>
<path d="M4810 3321 c0 -6 4 -13 10 -16 6 -3 7 1 4 9 -7 18 -14 21 -14 7z"/>
<path d="M3006 3262 c-3 -5 1 -9 9 -9 8 0 12 4 9 9 -3 4 -7 8 -9 8 -2 0 -6 -4
-9 -8z"/>
<path d="M515 3199 c-4 -6 -5 -12 -2 -15 2 -3 7 2 10 11 7 17 1 20 -8 4z"/>
<path d="M3620 3195 c-7 -9 -11 -17 -9 -20 3 -2 10 5 17 15 14 24 10 26 -8 5z"/>
<path d="M450 3101 c0 -6 4 -13 10 -16 6 -3 7 1 4 9 -7 18 -14 21 -14 7z"/>
<path d="M2820 3106 c0 -2 7 -7 16 -10 8 -3 12 -2 9 4 -6 10 -25 14 -25 6z"/>
<path d="M3495 3069 c-4 -6 -5 -12 -2 -15 2 -3 7 2 10 11 7 17 1 20 -8 4z"/>
<path d="M405 3060 c-3 -6 1 -7 9 -4 18 7 21 14 7 14 -6 0 -13 -4 -16 -10z"/>
<path d="M2796 3058 c3 -5 10 -6 15 -3 13 9 11 12 -6 12 -8 0 -12 -4 -9 -9z"/>
<path d="M4910 2959 c0 -5 5 -7 10 -4 6 3 10 8 10 11 0 2 -4 4 -10 4 -5 0 -10
-5 -10 -11z"/>
<path d="M4615 2879 c-3 -4 2 -6 10 -5 21 3 28 13 10 13 -9 0 -18 -4 -20 -8z"/>
<path d="M2336 2595 c-9 -26 -7 -32 5 -12 6 10 9 21 6 23 -2 3 -7 -2 -11 -11z"/>
<path d="M3464 2562 c23 -26 23 -26 23 -7 0 8 -3 13 -5 10 -3 -3 -12 1 -21 7
-10 8 -9 4 3 -10z"/>
<path d="M3430 2561 c0 -6 4 -13 10 -16 6 -3 7 1 4 9 -7 18 -14 21 -14 7z"/>
<path d="M3510 2519 c0 -5 5 -7 10 -4 6 3 10 8 10 11 0 2 -4 4 -10 4 -5 0 -10
-5 -10 -11z"/>
<path d="M3790 2480 c0 -5 5 -10 11 -10 5 0 7 5 4 10 -3 6 -8 10 -11 10 -2 0
-4 -4 -4 -10z"/>
<path d="M3855 2440 c-3 -5 -1 -10 4 -10 6 0 11 5 11 10 0 6 -2 10 -4 10 -3 0
-8 -4 -11 -10z"/>
<path d="M4035 2400 c3 -5 8 -10 11 -10 2 0 4 5 4 10 0 6 -5 10 -11 10 -5 0
-7 -4 -4 -10z"/>
<path d="M4275 2329 c-4 -6 -5 -12 -2 -15 2 -3 7 2 10 11 7 17 1 20 -8 4z"/>
<path d="M4375 2249 c-4 -6 -5 -12 -2 -15 2 -3 7 2 10 11 7 17 1 20 -8 4z"/>
<path d="M1006 2162 c-3 -5 1 -9 9 -9 8 0 12 4 9 9 -3 4 -7 8 -9 8 -2 0 -6 -4
-9 -8z"/>
<path d="M510 1976 c0 -3 9 -10 20 -16 11 -6 20 -8 20 -6 0 3 -9 10 -20 16
-11 6 -20 8 -20 6z"/>
<path d="M695 1970 c-4 -6 -11 -8 -16 -5 -5 4 -9 1 -9 -4 0 -16 16 -13 30 4 7
8 10 15 7 15 -3 0 -9 -5 -12 -10z"/>
<path d="M615 1940 c-3 -5 -1 -10 4 -10 6 0 11 5 11 10 0 6 -2 10 -4 10 -3 0
-8 -4 -11 -10z"/>
<path d="M1760 1880 c-9 -6 -10 -10 -3 -10 6 0 15 5 18 10 8 12 4 12 -15 0z"/>
<path d="M4313 1705 c0 -8 4 -12 9 -9 5 3 6 10 3 15 -9 13 -12 11 -12 -6z"/>
<path d="M4265 1690 c-3 -6 1 -7 9 -4 18 7 21 14 7 14 -6 0 -13 -4 -16 -10z"/>
<path d="M4250 1659 c0 -5 5 -7 10 -4 6 3 10 8 10 11 0 2 -4 4 -10 4 -5 0 -10
-5 -10 -11z"/>
<path d="M1559 1633 c-13 -16 -12 -17 4 -4 9 7 17 15 17 17 0 8 -8 3 -21 -13z"/>
<path d="M2694 1529 c-3 -6 -2 -15 3 -20 5 -5 9 -1 9 11 0 23 -2 24 -12 9z"/>
<path d="M3946 1518 c3 -4 9 -8 15 -8 5 0 9 4 9 8 0 5 -7 9 -15 9 -8 0 -12 -4
-9 -9z"/>
<path d="M2735 1511 c-3 -5 -2 -12 3 -15 5 -3 9 1 9 9 0 17 -3 19 -12 6z"/>
<path d="M3890 1511 c0 -6 4 -13 10 -16 6 -3 7 1 4 9 -7 18 -14 21 -14 7z"/>
<path d="M3806 1478 c3 -5 10 -6 15 -3 13 9 11 12 -6 12 -8 0 -12 -4 -9 -9z"/>
<path d="M3679 1478 c-5 -18 -6 -38 -1 -34 7 8 12 36 6 36 -2 0 -4 -1 -5 -2z"/>
<path d="M1330 1459 c0 -5 5 -7 10 -4 6 3 10 8 10 11 0 2 -4 4 -10 4 -5 0 -10
-5 -10 -11z"/>
<path d="M1259 1433 c-13 -17 -13 -17 6 -3 11 8 22 16 24 17 2 2 0 3 -6 3 -6
0 -17 -8 -24 -17z"/>
<path d="M3210 1441 c0 -6 4 -13 10 -16 6 -3 7 1 4 9 -7 18 -14 21 -14 7z"/>
<path d="M3520 1446 c0 -2 7 -7 16 -10 8 -3 12 -2 9 4 -6 10 -25 14 -25 6z"/>
<path d="M3090 1346 c0 -2 7 -7 16 -10 8 -3 12 -2 9 4 -6 10 -25 14 -25 6z"/>
<path d="M3166 1322 c-3 -5 1 -9 9 -9 8 0 12 4 9 9 -3 4 -7 8 -9 8 -2 0 -6 -4
-9 -8z"/>
<path d="M3273 1285 c0 -8 4 -12 9 -9 5 3 6 10 3 15 -9 13 -12 11 -12 -6z"/>
<path d="M4150 1281 c0 -6 4 -13 10 -16 6 -3 7 1 4 9 -7 18 -14 21 -14 7z"/>
</g>
</svg>
